<svg width="31" height="28" fill="none" xmlns="http://www.w3.org/2000/svg"><path d="M3.5 0l.786 2.418h2.543L4.77 3.913l.786 2.419L3.5 4.837 1.443 6.332l.786-2.419L.17 2.418h2.543L3.5 0zm8 0l.786 2.418h2.543L12.77 3.913l.786 2.419L11.5 4.837 9.443 6.332l.786-2.419L8.17 2.418h2.543L11.5 0zm8 0l.786 2.418h2.543L20.77 3.913l.786 2.419L19.5 4.837l-2.057 1.495.786-2.419-2.058-1.495h2.543L19.5 0zm8 0l.786 2.418h2.543L28.77 3.913l.786 2.419L27.5 4.837l-2.057 1.495.786-2.419-2.058-1.495h2.543L27.5 0zm-24 7l.786 2.418h2.543L4.77 10.913l.786 2.419L3.5 11.837l-2.057 1.495.786-2.419L.17 9.418h2.543L3.5 7zm8 0l.786 2.418h2.543l-2.058 1.495.786 2.419-2.057-1.495-2.057 1.495.786-2.419L8.17 9.418h2.543L11.5 7zm8 0l.786 2.418h2.543l-2.058 1.495.786 2.419-2.057-1.495-2.057 1.495.786-2.419-2.058-1.495h2.543L19.5 7zm8 0l.786 2.418h2.543l-2.058 1.495.786 2.419-2.057-1.495-2.057 1.495.786-2.419-2.058-1.495h2.543L27.5 7zm-24 7l.786 2.418h2.543L4.77 17.913l.786 2.419L3.5 18.837l-2.057 1.495.786-2.419L.17 16.418h2.543L3.5 14zm8 0l.786 2.418h2.543l-2.058 1.495.786 2.419-2.057-1.495-2.057 1.495.786-2.419-2.058-1.495h2.543L11.5 14zm8 0l.786 2.418h2.543l-2.058 1.495.786 2.419-2.057-1.495-2.057 1.495.786-2.419-2.058-1.495h2.543L19.5 14zm8 0l.786 2.418h2.543l-2.058 1.495.786 2.419-2.057-1.495-2.057 1.495.786-2.419-2.058-1.495h2.543L27.5 14zm-24 7l.786 2.418h2.543L4.77 24.913l.786 2.419L3.5 25.837l-2.057 1.495.786-2.419L.17 23.418h2.543L3.5 21zm8 0l.786 2.418h2.543l-2.058 1.495.786 2.419-2.057-1.495-2.057 1.495.786-2.419-2.058-1.495h2.543L11.5 21zm8 0l.786 2.418h2.543l-2.058 1.495.786 2.419-2.057-1.495-2.057 1.495.786-2.419-2.058-1.495h2.543L19.5 21zm8 0l.786 2.418h2.543l-2.058 1.495.786 2.419-2.057-1.495-2.057 1.495.786-2.419-2.058-1.495h2.543L27.5 21z" fill="#111"/></svg>