<svg width="98" height="17" viewBox="0 0 98 17" fill="none" xmlns="http://www.w3.org/2000/svg">
<path d="M5.28 17V3.848L0.48 4.088V0.0079999H14.52V4.088L9.6 3.848V13.16L9.864 15.56L9.6 17H5.28ZM13.6463 17L14.7983 12.944V9.896L16.5742 9.176L19.6943 0.0319996H25.9103L29.7743 10.784L31.6223 14.192V17H27.3743L26.1743 13.16H19.1903L18.1583 17H13.6463ZM20.7743 9.464H24.8543L23.0303 3.968H22.5263L20.7743 9.464ZM33.7716 17L33.2916 15.56L33.7716 13.16V0.0079999H38.0916V9.872L37.8516 13.16H38.3316L42.6276 12.92L44.3316 12.68L46.4436 15.464L45.2676 17H33.7716ZM46.9275 17L48.0795 12.944V9.896L49.8555 9.176L52.9755 0.0319996H59.1915L63.0555 10.784L64.9035 14.192V17H60.6555L59.4555 13.16H52.4715L51.4395 17H46.9275ZM54.0555 9.464H58.1355L56.3115 3.968H55.8075L54.0555 9.464ZM67.0528 17V3.872L66.5728 1.472L67.0528 0.0319996H70.9168L75.7648 6.56L76.9168 8.552H77.1568V0.0319996H81.6928V1.472L81.4528 3.872V17H77.6848L71.6608 8.552H71.4208V9.992L71.6608 17H67.0528ZM88.4128 17V3.848L83.6128 4.088V0.0079999H97.6528V4.088L92.7328 3.848V13.16L92.9968 15.56L92.7328 17H88.4128Z" fill="#F5F5F5"/>
</svg>
